<svg width="89" height="96" viewBox="0 0 89 96" fill="none" xmlns="http://www.w3.org/2000/svg">
<path d="M44.3 95.3L0 22.8L15.5 0H73.1L88.6 22.8L44.3 95.3ZM5.9 23L44.2 85.8L82.6 23L70.4 5H18.1L5.9 23Z" fill="white"/>
<path d="M3 20.4H85.6V25.4H3V20.4Z" fill="white"/>
<path d="M41.8 91L28.2 23.9L14.7 3.9L18.9 1.1L32.9 21.9L46.7 90L41.8 91Z" fill="white"/>
<path d="M46.7 91L41.8 90L55.7 21.9L69.7 1.1L73.8 3.9L60.4 23.9L46.7 91Z" fill="white"/>
<path d="M46.3702 1.15977L60.1537 21.5356L56.0123 24.3371L42.2288 3.96131L46.3702 1.15977Z" fill="white"/>
<path d="M42.2242 1.12249L46.366 3.92338L32.5857 24.3014L28.4438 21.5005L42.2242 1.12249Z" fill="white"/>
</svg>
